<svg xmlns="http://www.w3.org/2000/svg" xmlns:xlink="http://www.w3.org/1999/xlink" version="1.1" x="0px" y="0px" viewBox="-276 400.1 41.6 41.6" enable-background="new -276 400.1 41.6 41.8" xml:space="preserve"><g><path fill="none" d="M-255.2,404.9c-9,0-16.2,7.3-16.2,16.2c0,8.9,7.3,16.2,16.2,16.2c8.9,0,16.1-7.3,16.1-16.2   C-239.1,412.2-246.2,404.9-255.2,404.9z M-247.8,425.8c0.7,0.7,0.7,1.9,0,2.6l-0.2,0.2c-0.7,0.7-1.9,0.7-2.6,0l-4.5-4.5l-4.5,4.5   c-0.7,0.7-1.9,0.7-2.6,0l-0.2-0.2c-0.7-0.7-0.7-1.9,0-2.6l4.5-4.5l-4.5-4.5c-0.7-0.7-0.7-1.9,0-2.6l0.2-0.2c0.7-0.7,1.9-0.7,2.6,0   l4.5,4.5l4.5-4.5c0.7-0.7,1.9-0.7,2.6,0l0.2,0.2c0.7,0.7,0.7,1.9,0,2.6l-4.5,4.5L-247.8,425.8z"/><path d="M-255.2,400.9c-11.2,0-20.2,9.1-20.2,20.2c0,11.1,9,20.2,20.2,20.2s20.2-9,20.2-20.2C-235,409.9-244.1,400.9-255.2,400.9z    M-255.2,437.3c-8.9,0-16.2-7.3-16.2-16.2c0-8.9,7.2-16.2,16.2-16.2s16.1,7.3,16.1,16.2C-239.1,430-246.3,437.3-255.2,437.3z"/><path d="M-247.8,414.2l-0.2-0.2c-0.7-0.7-1.9-0.7-2.6,0l-4.5,4.5l-4.5-4.5c-0.7-0.7-1.9-0.7-2.6,0l-0.2,0.2c-0.7,0.7-0.7,1.9,0,2.6   l4.5,4.5l-4.5,4.5c-0.7,0.7-0.7,1.9,0,2.6l0.2,0.2c0.7,0.7,1.9,0.7,2.6,0l4.5-4.5l4.5,4.5c0.7,0.7,1.9,0.7,2.6,0l0.2-0.2   c0.7-0.7,0.7-1.9,0-2.6l-4.5-4.5l4.5-4.5C-247.1,416.1-247.1,414.9-247.8,414.2z"/></g><text x="-276" y="456.90000000000003" fill="#000000" font-size="5px" font-weight="bold" font-family="'Helvetica Neue', Helvetica, Arial-Unicode, Arial, Sans-serif">Created by Maarten De Proost</text><text x="-276" y="461.90000000000003" fill="#000000" font-size="5px" font-weight="bold" font-family="'Helvetica Neue', Helvetica, Arial-Unicode, Arial, Sans-serif">from the Noun Project</text></svg>