<svg xmlns="http://www.w3.org/2000/svg" viewBox="0 0 24 24" x="0px" y="0px"><title>Filter copy 2</title><path d="M15.82,4a3,3,0,0,0-5.64,0H2V6h8.18a3,3,0,0,0,5.64,0H22V4Z"/><path d="M7,9a3,3,0,0,0-2.82,2H2v2H4.18a3,3,0,0,0,5.64,0H22V11H9.82A3,3,0,0,0,7,9Z"/><path d="M16,16a3,3,0,0,0-2.82,2H2v2H13.18a3,3,0,0,0,5.64,0H22V18H18.82A3,3,0,0,0,16,16Z"/><text x="0" y="39" fill="#000000" font-size="5px" font-weight="bold" font-family="'Helvetica Neue', Helvetica, Arial-Unicode, Arial, Sans-serif">Created by Dwiky Setiawan</text><text x="0" y="44" fill="#000000" font-size="5px" font-weight="bold" font-family="'Helvetica Neue', Helvetica, Arial-Unicode, Arial, Sans-serif">from the Noun Project</text></svg>